P1
#first comment
6 10 #another one
1 1 1 1 1 1
0 0 1 0 0 0 #one more here
0 0 1 0 0 0
0 0 1 0 0 0
0 0 1 0 0 0
0 0 1 0 0 0
0 0 1 0 0 0
0 0 1 0 0 0
0 0 1 0 0 0
1 1 1 1 1 1