P2
21 6
255
0 0 0 0 255 255 255 255 255 255 255 255 255 255 255 255 255 255 255 255 255 
0 0 0 0 255 255 255 255 255 255 255 255 255 255 255 255 255 255 255 255 255 
0 0 0 0 255 255 255 255 255 255 255 255 255 255 255 255 255 255 255 255 255 
0 0 0 0 255 255 255 255 255 255 255 255 255 255 255 255 255 255 255 255 255 
0 0 0 0 0 0 0 0 0 0 0 0 0 0 0 0 0 0 0 0 0 
0 0 0 0 0 0 0 0 0 0 0 0 0 0 0 0 0 0 0 0 0 
