P3
51 51
255
169 139 63
153 121 53
166 133 72
200 169 113
215 184 139
223 193 152
231 201 162
234 204 167
237 207 172
238 208 174
240 210 176
238 209 174
235 208 170
235 206 169
233 203 164
229 198 154
227 196 152
228 195 152
228 195 152
226 193 150
226 193 150
226 193 150
226 193 150
229 196 155
232 200 159
232 200 159
231 198 157
228 195 152
222 189 142
216 187 137
211 184 135
205 181 131
202 178 129
200 176 129
196 172 126
200 173 129
202 174 130
204 177 133
204 176 132
207 179 134
207 183 137
201 182 136
154 137 100
138 123 93
121 106 81
107 92 63
143 124 92
175 147 112
193 161 125
200 169 132
201 169 133
159 121 54
148 108 44
186 151 89
210 179 123
216 186 138
224 196 152
229 198 160
234 203 167
236 203 168
239 204 170
241 207 172
238 205 168
234 203 162
236 204 164
232 199 158
226 195 150
226 194 150
227 194 151
225 193 151
224 192 150
223 190 149
223 192 149
225 195 152
226 197 154
225 197 153
222 193 149
215 186 143
210 183 139
205 180 133
203 179 131
198 176 128
198 175 128
197 172 124
196 171 123
197 172 124
199 172 124
201 172 125
202 173 126
203 172 126
207 175 129
206 175 129
204 175 126
206 178 129
187 160 119
159 138 108
119 104 77
107 93 66
114 98 75
118 102 80
101 87 62
98 88 62
135 98 35
148 108 51
196 162 105
212 179 123
219 188 137
225 194 148
230 197 155
233 201 159
234 200 159
235 198 158
236 199 159
235 199 159
232 199 156
229 196 153
223 190 148
220 189 147
218 187 145
217 185 144
219 187 146
219 187 146
218 187 145
216 187 145
215 189 146
209 185 139
208 184 138
207 183 137
201 180 133
194 175 127
192 172 125
189 167 119
186 163 114
192 165 119
196 168 122
197 168 122
202 173 126
205 174 125
204 173 122
203 172 121
204 172 124
210 176 130
208 174 128
210 176 128
215 182 136
217 185 144
215 184 148
208 180 142
193 167 134
178 158 133
172 156 132
155 142 117
162 148 124
123 87 30
154 116 62
198 163 108
210 176 118
218 185 133
222 191 143
226 192 145
230 196 149
230 196 148
232 194 147
233 195 148
229 193 146
222 189 145
222 189 144
215 183 139
209 181 140
206 177 137
206 178 136
205 177 134
202 174 132
199 172 129
195 170 127
191 168 124
190 168 122
189 167 120
183 161 114
178 157 110
174 155 107
178 153 107
181 157 107
187 161 112
195 166 122
201 169 128
205 173 129
206 175 131
208 175 130
208 175 128
209 175 129
212 178 131
213 179 133
212 178 131
214 180 136
217 182 142
218 185 147
216 187 152
213 188 150
215 191 157
214 192 163
211 190 162
212 193 165
212 196 166
123 84 34
170 131 75
201 165 103
211 172 115
218 180 124
224 186 131
226 189 135
227 189 137
228 190 138
225 187 137
222 186 138
220 185 138
218 184 139
209 179 135
199 172 130
191 168 127
187 163 122
184 160 117
178 156 112
175 153 108
176 154 109
174 154 106
171 150 103
169 148 100
170 147 99
167 145 96
169 146 98
180 156 110
190 163 118
203 171 125
206 171 125
209 173 131
211 176 134
213 179 134
211 176 133
213 177 132
213 176 131
215 178 132
213 178 136
211 177 139
213 181 142
219 186 149
217 185 150
214 184 151
213 188 155
211 189 156
213 191 159
209 191 159
210 192 160
212 195 163
212 196 167
128 89 38
178 139 82
200 162 100
209 170 111
213 174 116
218 179 120
223 184 127
222 183 128
222 183 131
216 180 129
214 180 131
211 177 131
209 176 131
200 170 127
182 157 115
170 147 106
165 142 100
164 142 98
164 141 97
164 142 98
165 142 97
167 143 96
169 144 97
174 149 101
180 152 105
185 157 110
193 163 117
202 168 125
210 172 131
215 177 136
217 179 138
218 179 139
219 180 140
217 178 135
211 175 130
212 176 131
212 176 131
210 174 130
215 180 139
214 183 144
213 184 144
212 185 148
211 185 151
212 187 155
213 190 157
211 188 156
213 191 159
211 194 161
212 196 163
215 199 166
219 202 170
134 95 41
180 141 85
197 159 100
209 171 110
212 174 113
213 174 113
217 178 119
217 179 122
213 176 121
209 176 124
208 176 126
205 175 127
198 166 121
183 156 112
160 137 94
158 135 95
160 137 95
160 137 93
162 138 94
160 136 92
170 143 99
181 149 103
190 159 112
196 163 117
202 167 122
206 171 126
209 175 131
215 176 135
221 179 139
217 176 135
216 175 133
216 177 131
211 172 126
204 170 123
207 177 134
207 181 143
206 180 144
211 186 149
214 190 153
213 191 154
212 192 153
213 193 157
217 197 163
217 199 166
223 202 168
223 200 168
224 202 171
224 207 174
225 209 176
225 209 176
228 210 178
137 97 46
184 142 86
203 163 108
213 175 120
216 179 123
216 179 123
217 180 125
218 181 126
216 179 126
209 176 126
204 175 125
191 167 119
176 150 106
168 144 100
159 136 92
156 135 91
159 136 92
171 147 102
179 152 108
185 156 111
193 161 118
201 166 121
207 170 124
211 172 128
214 176 134
214 175 134
216 175 132
216 176 131
211 172 128
207 169 125
209 172 127
210 175 131
212 179 136
202 174 127
175 152 107
160 143 101
155 141 105
181 166 133
220 204 170
225 209 175
228 209 176
226 208 176
227 210 178
224 207 176
226 207 175
228 209 176
230 210 177
230 211 179
229 211 179
229 211 178
233 211 179
138 98 48
186 142 86
202 162 107
210 173 120
217 180 127
222 185 132
221 186 132
220 185 131
217 182 129
209 176 126
198 171 121
180 157 108
169 146 102
162 139 95
158 136 91
163 141 96
175 150 107
193 166 121
202 170 122
208 173 125
208 171 126
209 171 130
212 172 129
212 173 129
207 169 123
209 166 123
206 163 121
203 167 121
210 177 132
214 184 143
216 190 153
219 195 159
222 199 165
226 203 164
226 205 166
223 203 168
166 149 117
152 141 106
163 150 117
219 202 169
229 210 178
228 209 177
231 212 180
230 211 179
230 210 177
229 210 177
230 210 177
231 211 177
230 210 177
230 210 177
233 210 178
133 92 43
183 139 83
199 159 106
210 172 121
219 181 131
225 187 137
220 186 132
220 186 132
217 183 130
210 176 127
193 166 116
174 152 102
168 145 101
165 142 99
170 147 103
179 155 111
193 166 123
202 173 130
207 175 131
207 173 129
210 174 130
209 172 126
203 165 116
203 164 113
205 169 119
208 174 128
216 186 145
218 194 157
219 198 161
222 200 165
224 204 170
222 204 172
223 205 174
226 205 170
229 205 174
228 206 178
224 206 175
184 169 136
134 120 87
165 150 118
211 192 161
230 210 178
231 211 178
229 209 176
228 207 174
229 206 174
230 207 175
231 208 174
230 208 173
229 207 173
230 206 172
127 91 45
175 135 84
196 155 101
208 169 119
218 181 131
226 188 139
224 191 142
221 189 138
218 185 133
212 178 131
190 162 115
169 147 101
169 146 104
176 153 114
185 162 124
196 171 126
204 172 117
200 167 111
204 168 114
208 171 123
202 168 115
193 162 111
205 173 127
215 186 144
219 195 155
220 198 161
218 198 163
219 200 166
219 199 164
221 200 166
224 202 168
226 204 170
227 204 171
229 205 173
229 204 173
230 205 173
229 204 171
228 203 170
198 175 143
121 107 78
151 142 115
202 187 152
228 203 175
230 204 174
228 205 167
229 205 168
229 203 170
229 201 166
229 201 164
229 202 165
224 198 160
117 82 38
160 122 73
189 149 96
204 166 114
216 179 127
223 187 135
226 193 145
224 192 141
219 187 134
214 181 133
196 167 120
175 152 105
177 154 111
188 165 124
195 172 130
198 172 114
191 153 81
200 159 87
203 165 104
202 166 120
206 173 126
217 187 142
218 188 146
218 189 149
216 191 150
217 194 153
218 195 156
218 196 156
219 197 157
221 197 158
223 200 160
224 201 162
224 200 161
223 199 159
224 199 159
224 198 160
224 198 159
223 198 159
223 198 157
179 160 128
104 97 74
140 132 106
173 159 120
216 192 151
221 196 158
222 195 157
221 192 156
223 191 156
224 193 158
225 194 159
223 195 157
109 78 34
136 101 53
179 139 88
196 159 106
208 171 118
219 183 130
224 191 143
224 192 142
222 190 138
217 185 135
202 175 125
183 160 111
184 161 115
195 171 129
202 179 136
204 176 118
198 162 86
195 157 77
205 165 99
213 178 135
217 185 148
220 191 154
223 195 158
216 187 149
212 183 142
213 186 141
214 188 141
216 190 145
215 188 144
214 189 144
215 191 147
218 194 149
216 191 145
217 191 143
217 191 144
216 191 144
214 190 143
214 190 142
215 190 141
217 189 149
163 142 108
118 109 79
177 171 138
140 126 89
201 177 140
217 189 151
220 190 149
219 187 145
220 188 145
217 185 142
212 183 136
98 74 29
113 83 37
158 123 76
191 154 100
201 164 109
213 177 122
219 186 133
225 191 143
224 190 144
220 188 139
212 183 131
197 171 118
198 171 124
205 177 133
211 184 140
210 180 124
211 172 99
205 165 84
204 169 104
218 188 146
219 189 153
226 196 160
226 199 165
227 201 168
221 195 158
211 185 136
207 180 127
211 181 134
211 181 135
212 184 137
210 184 139
211 183 140
213 185 139
215 186 141
216 187 142
214 185 139
214 185 138
212 184 136
210 181 131
210 179 131
204 175 130
157 135 95
123 112 86
171 164 136
119 109 79
146 126 89
188 161 117
205 174 125
206 174 124
204 171 120
205 171 118
101 81 38
103 76 32
138 105 59
178 142 88
193 156 101
207 171 116
213 180 125
218 185 132
219 186 136
218 186 136
215 185 133
206 178 127
206 178 130
211 183 137
213 184 139
215 182 122
203 160 79
204 160 73
213 176 113
226 197 157
221 194 158
220 193 153
222 195 154
225 200 163
232 209 175
231 209 171
224 201 163
216 191 149
211 181 132
207 176 122
206 173 122
209 175 129
210 178 131
210 179 131
210 179 130
208 176 126
205 173 122
203 171 119
204 172 118
204 170 115
204 166 115
201 165 119
170 141 102
115 100 67
171 167 132
142 136 102
110 95 57
143 120 77
179 152 106
190 161 111
193 164 110
112 93 51
98 74 33
122 91 46
159 123 70
187 149 95
201 165 109
206 174 117
213 181 123
216 184 127
216 185 132
218 188 138
212 184 135
211 183 133
215 187 139
215 188 140
213 181 126
210 169 97
210 167 87
216 177 118
230 203 164
232 208 174
228 203 165
226 198 158
227 197 158
231 202 168
235 209 180
235 213 185
235 218 186
233 215 184
226 200 166
210 178 131
202 170 119
206 174 123
206 175 120
204 173 118
201 168 112
201 167 110
200 166 109
200 164 109
199 164 112
197 164 113
200 166 118
200 170 127
190 166 131
164 149 116
160 148 112
141 126 90
124 110 76
105 91 50
114 97 52
137 115 67
124 100 66
101 78 44
101 77 41
135 108 66
168 135 87
191 151 98
202 164 108
209 173 117
217 183 127
216 185 132
220 187 138
218 186 137
215 185 133
218 188 140
218 188 143
220 191 147
226 194 143
219 186 125
224 193 146
230 204 168
232 209 179
234 213 181
236 214 182
236 213 182
237 213 185
236 212 184
232 210 180
232 215 185
236 219 194
239 222 200
232 206 173
230 197 154
220 188 140
201 167 107
198 166 108
195 163 108
197 166 113
201 172 123
208 182 139
215 192 153
218 198 161
221 201 168
221 202 171
220 201 171
216 202 172
213 200 168
210 193 162
203 187 156
200 185 154
202 187 156
212 195 165
132 108 74
111 88 54
96 73 38
116 92 52
151 119 73
178 139 88
188 149 95
199 163 108
210 177 120
213 182 124
216 185 129
215 185 130
213 184 129
219 189 139
219 188 142
219 190 148
221 191 150
224 196 149
227 200 161
231 206 170
232 210 177
234 214 184
236 217 186
236 217 189
235 218 193
237 220 195
236 218 190
234 215 181
236 217 185
238 221 193
241 217 186
230 192 156
229 192 154
209 181 141
211 185 146
213 190 156
215 194 163
217 199 169
219 202 172
217 201 172
216 203 174
217 201 175
218 201 176
219 202 177
217 202 177
219 205 180
219 206 180
220 206 180
221 207 182
222 207 182
211 200 172
135 111 77
122 98 64
102 79 44
102 80 41
127 97 53
163 127 77
184 146 91
194 159 103
206 173 117
209 178 123
213 182 128
216 185 131
214 185 128
217 187 136
219 188 140
220 191 144
220 192 150
223 199 159
227 204 165
232 208 176
234 212 182
233 216 188
233 216 188
235 217 190
238 218 193
239 220 195
239 218 191
239 218 188
235 214 183
237 218 191
243 221 197
240 210 183
227 198 170
216 195 167
214 197 170
214 198 173
213 199 175
214 201 177
217 201 177
219 200 175
217 200 173
217 201 176
218 203 179
219 204 180
213 199 177
202 189 170
183 174 157
153 147 128
132 126 106
104 99 80
77 74 55
124 105 68
126 103 69
103 84 50
96 78 41
109 83 41
149 116 71
174 143 87
186 154 100
200 168 116
205 173 121
210 178 127
216 185 133
215 185 131
216 186 133
219 188 138
219 188 142
222 193 149
226 200 158
228 203 166
232 208 178
233 212 185
233 217 188
235 219 193
237 219 194
240 220 196
240 217 189
237 207 175
241 215 186
238 217 189
235 213 186
241 220 196
245 224 201
232 212 187
218 198 171
217 200 174
217 201 176
217 201 176
217 202 176
216 201 176
217 203 177
216 204 177
217 204 178
213 200 174
173 161 137
122 113 91
134 125 104
130 123 108
72 68 53
46 41 28
47 42 27
53 54 36
119 101 66
128 104 70
109 90 55
100 81 46
104 80 40
135 105 61
167 136 84
181 149 97
192 160 108
203 172 120
206 174 123
213 181 130
213 184 129
216 186 131
216 186 133
221 190 143
221 192 147
227 199 156
229 202 164
233 207 176
234 212 183
235 216 188
238 219 194
239 219 196
241 220 193
237 210 170
207 172 124
232 205 170
241 220 195
234 211 184
237 216 189
243 224 198
234 216 189
218 198 170
218 202 176
218 202 177
218 202 177
218 202 177
217 201 175
219 205 179
217 205 181
191 181 156
102 94 71
155 148 124
214 207 174
205 199 173
144 139 125
57 52 40
61 54 45
68 61 50
62 58 46
111 92 61
126 103 69
115 96 58
108 89 55
104 81 43
116 90 47
151 118 71
173 141 91
185 154 102
198 166 115
204 172 121
209 177 126
212 183 126
213 184 127
217 186 131
221 190 140
223 194 147
225 197 152
230 201 163
234 206 174
235 210 182
236 215 187
240 219 194
241 219 196
241 218 191
237 205 165
214 173 121
231 203 165
240 218 197
236 211 185
234 213 183
239 220 192
235 217 188
220 200 172
220 203 178
219 203 178
219 203 178
218 202 177
218 203 175
219 205 179
174 162 142
75 67 51
52 46 27
147 142 122
124 120 96
42 43 8
64 62 49
67 61 48
62 55 43
43 36 20
106 98 79
85 68 41
122 99 67
120 97 61
121 97 63
111 87 53
115 90 55
142 109 69
165 135 85
181 151 101
189 160 112
196 168 120
204 176 127
209 181 128
211 181 126
216 185 129
220 190 136
223 193 143
226 197 152
228 200 160
232 206 171
235 209 179
236 213 182
239 215 187
240 219 194
242 220 195
244 215 185
240 209 175
241 215 183
241 217 188
236 211 181
232 208 175
237 215 184
230 210 179
220 200 172
218 202 176
219 203 177
218 202 177
220 204 179
216 205 179
172 164 143
62 55 43
47 42 32
50 43 34
52 46 29
70 62 44
73 66 54
54 46 34
71 60 42
102 91 71
176 164 137
216 202 176
77 61 29
120 99 64
127 103 67
126 102 68
116 92 58
113 89 54
127 99 58
154 125 76
175 145 95
183 154 107
187 159 111
196 168 119
205 176 124
208 178 123
211 180 124
215 185 131
219 189 140
224 195 150
228 199 159
231 204 170
234 208 178
235 212 181
239 215 187
241 217 191
242 218 190
241 219 188
241 219 190
241 219 191
238 217 186
233 209 176
232 206 173
230 207 176
221 201 170
220 200 172
218 202 176
216 200 176
218 202 177
219 203 178
199 189 164
121 118 100
56 54 43
50 48 33
66 60 45
68 62 40
56 47 25
61 50 32
137 128 106
189 177 146
214 201 171
221 207 180
220 206 180
111 95 58
96 76 43
129 106 71
129 105 71
116 92 58
112 88 53
120 96 55
148 120 71
171 139 91
177 148 100
187 159 111
192 164 115
201 173 120
205 174 120
208 178 121
212 182 127
218 188 138
222 193 148
226 197 157
229 203 168
231 206 175
232 209 178
237 212 184
238 216 187
238 218 185
239 217 189
240 217 191
242 217 191
240 212 185
234 204 175
232 204 172
228 203 172
221 198 169
220 201 173
219 203 177
218 203 178
219 204 178
206 191 166
132 122 99
155 150 128
56 50 35
63 60 40
61 54 35
87 81 58
161 150 122
209 196 169
219 206 179
220 207 180
220 206 181
222 207 184
221 207 181
129 106 60
65 51 22
119 99 70
124 102 70
117 94 60
114 92 55
118 95 57
145 117 74
169 137 90
181 149 103
187 158 111
190 163 115
202 171 120
204 173 122
203 174 121
205 179 121
214 187 132
218 190 145
223 194 152
227 201 161
229 205 167
231 206 173
236 211 180
239 214 183
239 215 184
240 214 184
239 215 185
240 216 186
236 209 180
230 204 172
231 205 171
226 202 170
221 199 168
219 201 172
214 202 175
189 181 158
155 148 120
180 174 143
162 158 130
86 82 64
47 42 28
121 112 91
173 161 137
209 196 168
222 208 181
222 208 182
222 208 182
223 209 183
221 207 181
221 207 182
221 207 181
144 120 74
84 69 36
88 73 46
122 101 70
111 91 58
112 92 56
119 98 62
142 115 73
167 135 90
179 147 102
188 160 113
193 166 118
196 168 118
202 173 123
202 174 124
205 178 124
212 185 132
217 189 141
220 193 147
224 199 155
227 203 163
229 203 168
233 206 174
235 209 177
236 210 177
237 211 177
236 210 178
237 211 180
234 206 176
229 201 169
230 205 170
222 198 166
223 201 169
218 202 173
192 183 159
81 75 59
142 138 117
199 194 166
75 71 50
48 42 27
82 74 61
201 189 164
220 206 179
220 206 179
222 208 182
223 209 183
220 206 180
219 205 179
221 207 181
221 207 181
222 208 182
153 128 81
118 100 60
68 56 27
106 89 60
113 95 63
106 87 54
117 97 62
140 114 75
163 132 89
177 146 102
187 158 114
195 168 122
198 172 125
200 174 126
203 176 128
204 176 127
209 182 130
215 188 140
219 191 145
222 197 151
226 201 160
229 201 164
231 204 169
233 205 170
234 205 169
234 206 169
234 207 171
234 207 173
233 202 170
227 198 164
225 199 165
221 198 166
219 200 168
217 203 174
156 147 127
65 59 41
161 157 135
163 161 135
49 45 28
48 40 32
113 103 87
216 203 177
221 207 182
221 207 181
221 207 181
221 207 181
219 205 179
219 205 179
221 207 181
222 208 182
222 208 182
157 132 85
120 100 62
101 88 55
67 58 30
103 90 58
101 84 51
117 96 61
140 114 74
157 126 82
173 143 99
187 159 115
193 168 124
202 179 138
201 178 135
198 175 129
201 173 125
207 180 127
213 186 137
215 188 141
220 193 149
223 198 155
225 202 160
229 203 162
231 203 162
230 201 161
229 199 160
232 202 162
231 199 161
229 197 159
228 197 160
222 196 161
220 200 170
218 200 173
219 202 176
153 143 122
87 83 60
137 134 115
145 144 120
45 40 29
45 36 33
102 93 81
212 198 174
221 207 181
219 205 179
220 206 180
220 206 180
219 205 179
221 207 181
221 207 181
221 207 181
222 208 182
151 127 77
121 102 62
109 95 58
87 76 44
71 58 29
95 80 49
114 93 61
135 110 72
151 120 80
167 139 97
186 161 118
193 169 126
204 181 141
207 184 142
206 182 139
205 180 133
206 182 130
209 183 135
214 187 140
217 190 146
220 194 151
222 198 153
226 198 155
229 199 157
230 197 159
231 198 159
228 196 157
226 194 156
228 196 158
226 196 157
220 197 165
219 202 175
219 200 172
219 202 176
169 158 137
73 69 53
48 45 31
112 108 84
63 58 40
46 40 28
79 73 56
176 164 141
221 207 181
222 208 182
222 208 182
221 207 181
220 206 180
222 208 182
222 208 182
222 208 182
222 208 182
143 120 67
122 103 61
109 95 56
109 96 61
84 72 41
78 66 38
112 91 59
133 107 71
148 117 78
163 136 95
184 160 119
194 173 131
201 177 140
208 184 145
210 188 146
208 185 139
207 185 134
207 183 135
212 185 139
214 187 142
217 190 147
218 191 146
225 195 152
227 194 153
228 195 156
228 194 156
224 191 153
225 193 155
226 194 157
223 193 154
219 199 169
215 202 176
219 200 171
217 200 174
180 170 147
50 47 29
80 78 61
215 210 175
120 114 89
63 61 45
102 102 82
135 127 103
206 192 167
222 207 181
221 207 181
219 205 179
221 207 181
222 208 182
221 207 181
221 207 181
222 208 182
136 115 58
125 104 62
113 95 53
112 95 56
115 97 64
80 62 35
92 71 44
126 101 66
148 118 80
169 139 99
185 160 116
197 174 133
198 174 135
203 179 140
209 186 146
210 187 143
212 190 145
209 187 140
210 186 138
211 187 140
212 187 141
217 187 145
222 189 149
225 192 151
225 192 152
224 191 150
224 192 152
225 192 157
227 195 160
221 192 154
219 199 167
217 203 175
218 202 174
216 202 172
173 165 140
44 42 29
50 48 36
121 116 99
134 128 115
138 137 117
125 126 110
68 59 37
194 178 154
224 208 182
222 208 182
221 207 181
222 208 182
221 207 181
222 208 182
222 208 182
224 210 184
138 115 60
128 106 62
116 95 55
112 94 56
118 99 65
106 86 56
81 61 34
103 82 52
141 118 78
161 137 95
182 159 113
201 178 137
201 178 137
204 181 139
206 183 141
208 185 141
209 187 142
210 188 140
208 185 133
204 181 130
211 187 138
214 187 144
219 189 147
222 191 149
223 191 150
222 190 149
225 193 153
226 193 158
227 194 160
222 193 155
220 200 168
218 204 176
219 203 176
216 202 175
111 103 84
49 47 36
49 48 37
59 58 44
75 70 59
76 74 61
46 40 31
119 107 86
223 207 181
224 208 182
223 208 183
222 208 182
221 207 181
222 208 182
222 208 182
222 208 182
225 211 185
147 121 66
137 111 63
121 97 58
116 95 59
121 100 67
113 91 61
105 85 56
88 69 43
100 81 44
151 129 88
179 156 112
202 178 138
210 186 150
211 188 151
214 190 152
217 194 154
214 191 148
212 189 144
210 187 143
211 188 143
215 192 149
218 193 153
220 193 153
221 193 154
221 194 154
221 193 152
223 195 154
226 194 158
226 195 160
222 193 155
220 199 168
217 203 176
219 204 175
182 168 138
80 71 44
71 64 48
48 40 20
72 66 45
64 59 42
131 127 114
65 58 48
148 136 113
224 208 182
222 207 181
221 207 181
223 209 183
222 208 182
224 210 184
224 210 184
225 211 185
223 210 184
162 133 76
155 124 72
125 99 57
118 95 62
119 96 65
117 95 63
106 88 56
108 91 59
104 86 55
94 75 45
159 138 104
194 173 135
210 186 148
215 192 155
216 192 156
217 194 160
215 193 156
214 192 152
213 191 152
217 197 159
219 200 165
223 202 170
226 203 169
227 203 168
225 200 165
222 197 160
222 194 155
225 192 157
226 193 161
218 193 158
215 200 168
206 195 165
168 154 124
134 121 91
197 183 155
204 189 164
180 166 142
96 85 62
84 76 51
64 57 40
71 65 44
197 184 159
222 208 182
222 207 181
222 208 182
222 208 182
222 208 182
225 211 185
224 210 184
224 210 184
223 211 188
162 134 76
160 129 76
127 100 58
117 94 61
120 97 65
115 93 61
109 88 57
110 90 58
117 98 66
133 115 84
130 113 81
137 120 87
175 155 115
206 186 146
211 191 153
210 191 155
211 191 157
214 194 160
216 196 163
219 202 170
224 207 177
229 210 179
228 207 176
231 207 174
230 203 170
225 199 162
224 197 161
220 192 156
205 176 141
178 161 127
154 148 117
124 114 84
178 164 132
208 194 165
220 206 179
220 205 179
221 206 180
203 191 164
170 159 134
124 111 87
151 139 112
219 206 178
223 209 183
223 209 183
223 209 183
222 208 182
224 210 184
225 211 185
225 211 185
226 212 186
225 213 190
179 149 92
170 139 87
140 112 70
119 95 62
121 98 65
114 91 59
109 88 56
111 90 58
119 98 65
145 121 87
180 157 120
177 156 118
135 122 83
143 130 95
151 137 105
199 183 147
210 191 160
216 197 167
222 203 174
225 209 182
227 211 184
227 209 179
224 204 173
226 205 173
217 198 162
185 167 129
146 131 95
151 138 98
157 145 104
135 122 86
162 150 120
206 194 167
216 201 173
219 205 178
220 206 180
220 204 180
220 206 180
220 208 180
221 205 179
223 204 176
222 205 175
224 209 183
224 210 184
224 210 184
223 209 183
223 209 183
224 210 184
226 212 186
225 211 185
225 211 185
224 212 189
173 141 87
168 136 84
147 117 74
125 101 64
122 97 61
114 90 55
116 93 56
120 97 61
124 101 64
144 121 83
183 159 121
201 178 141
205 186 149
196 179 145
179 165 131
154 141 103
141 128 92
156 143 108
185 168 134
198 181 149
201 183 151
194 176 139
187 167 128
175 155 117
175 156 121
184 165 130
192 173 136
205 185 149
210 190 155
215 197 165
218 203 174
218 202 176
218 202 177
219 205 179
220 206 180
219 205 179
220 206 180
221 207 181
221 207 181
223 209 183
223 209 183
222 208 182
223 209 183
224 210 184
225 211 185
224 210 184
224 210 184
224 210 184
225 211 185
224 210 184
224 209 184
169 137 80
166 135 80
144 114 70
127 102 66
118 94 58
117 94 58
124 99 62
122 98 60
135 111 72
152 129 88
185 162 121
201 178 138
213 190 154
214 193 158
217 198 166
223 206 176
218 201 170
202 186 153
198 179 143
194 176 142
199 181 146
211 193 156
229 208 173
231 208 174
229 206 173
228 206 172
228 204 171
229 205 173
224 200 166
217 198 166
218 203 173
217 201 175
216 201 176
216 202 176
219 205 179
219 205 179
220 206 180
222 208 182
223 209 183
223 209 183
222 208 182
222 208 182
222 208 182
222 208 182
223 209 183
223 209 183
225 211 185
224 210 184
224 210 184
224 210 184
225 211 185
175 144 87
160 128 73
142 113 66
126 101 63
118 93 55
120 96 58
122 96 56
127 100 60
142 116 76
163 140 99
196 175 136
206 186 149
210 192 157
211 194 160
214 198 165
220 202 168
225 207 176
230 212 182
233 214 183
234 214 185
235 214 188
237 215 188
236 213 182
233 210 178
234 212 180
231 209 177
229 206 175
230 206 176
226 203 171
217 199 168
217 202 175
217 201 174
217 202 176
218 203 177
220 205 179
220 205 179
220 205 180
222 207 182
222 207 182
221 206 180
223 208 182
222 207 181
223 209 183
222 208 182
222 208 182
223 209 183
223 209 183
223 209 183
224 210 184
224 210 184
224 210 184
174 143 88
156 122 67
139 111 61
124 100 58
118 93 52
123 98 57
125 97 57
132 104 64
149 123 83
179 157 117
203 185 151
217 202 172
220 205 178
224 208 181
224 209 182
228 211 184
230 213 187
232 215 189
233 216 191
235 216 191
238 217 191
238 215 185
237 211 181
235 209 179
235 210 179
232 208 176
231 207 176
229 207 176
222 202 171
217 199 171
218 202 176
217 201 175
218 202 176
219 203 177
220 204 178
220 204 178
220 204 179
219 203 178
221 205 180
220 205 180
222 206 181
221 207 181
223 209 183
222 208 182
221 207 181
223 209 183
222 208 182
222 208 182
224 210 184
223 209 183
222 208 182
174 143 89
155 122 66
139 111 60
127 102 60
123 98 57
123 98 57
129 101 61
138 110 70
163 136 96
192 169 132
209 190 159
218 202 175
226 210 184
231 215 189
234 218 192
236 219 193
235 217 192
235 217 192
235 215 190
237 215 187
238 214 186
236 212 182
236 210 180
236 210 179
236 211 180
233 208 177
231 207 176
226 204 173
218 197 166
216 199 170
217 201 175
218 202 176
218 202 176
219 203 177
219 203 177
220 204 179
220 203 179
220 204 179
219 203 178
220 204 179
223 207 182
221 206 180
223 209 183
222 208 182
223 209 183
222 208 182
222 208 182
222 208 182
224 210 184
224 210 184
224 210 184
174 143 90
154 121 67
135 107 57
127 101 60
130 104 63
127 101 60
131 102 63
148 120 81
173 147 107
199 177 141
209 190 159
212 196 169
222 207 176
227 212 181
230 214 183
234 216 186
232 214 184
234 215 185
235 213 183
236 213 185
236 212 185
236 212 182
234 209 178
233 207 176
235 210 179
234 209 179
231 207 176
222 199 168
217 198 166
217 200 171
218 202 176
218 202 176
216 200 174
217 201 176
220 204 178
220 204 179
219 203 178
221 205 180
221 205 180
222 206 181
223 208 183
223 208 183
223 209 183
222 208 182
223 209 183
222 208 182
222 208 182
223 209 183
223 209 183
224 210 184
225 211 185
175 147 98
147 116 69
132 99 55
134 104 61
136 107 64
136 107 64
145 117 76
165 140 97
176 152 111
193 173 133
204 186 151
209 192 160
216 198 166
222 205 172
226 208 176
228 208 176
230 209 177
233 210 179
235 212 181
237 214 183
239 216 185
240 216 185
237 213 180
236 210 178
237 212 181
237 211 182
229 204 174
220 198 166
219 199 168
218 201 174
217 201 176
217 201 177
217 201 176
220 204 179
220 204 179
221 206 180
220 206 180
221 207 181
222 208 182
222 208 182
222 208 182
222 208 182
222 208 182
225 211 185
223 209 183
223 209 183
225 211 185
226 212 186
224 210 184
225 211 185
225 211 185
166 138 91
143 113 66
136 105 57
141 112 67
139 111 65
146 117 72
164 136 90
175 150 106
191 167 126
197 178 140
202 184 146
205 189 151
214 195 161
222 203 169
224 205 171
226 208 173
230 209 175
232 209 177
233 210 179
237 214 184
239 215 185
239 215 187
239 213 184
237 211 180
237 212 182
234 208 180
225 200 172
220 200 169
219 202 173
220 204 178
220 204 179
219 203 178
219 203 178
220 204 179
221 205 180
220 206 180
221 207 181
222 208 182
223 209 183
221 207 181
222 208 182
222 208 182
222 208 182
223 209 183
224 210 184
224 210 184
225 211 185
225 211 185
225 211 185
225 211 185
225 211 185
158 129 87
143 111 65
139 108 58
144 114 66
143 113 66
155 125 79
171 144 95
186 161 118
202 178 142
206 184 151
209 189 155
209 191 157
222 200 167
225 204 170
228 207 173
230 210 175
232 210 177
233 209 177
235 211 181
238 214 184
239 215 186
239 215 186
239 213 183
236 210 182
235 210 179
225 201 170
221 199 171
220 203 175
219 203 176
218 202 177
220 204 179
220 204 179
221 206 180
220 205 179
221 206 180
220 206 180
222 208 182
222 208 182
222 208 182
221 207 181
221 207 181
222 208 182
222 208 182
223 209 183
225 210 185
225 211 187
225 210 187
225 210 186
225 210 187
226 212 187
225 210 186
141 113 74
141 107 62
143 111 60
147 115 66
156 124 78
171 139 94
184 156 110
197 170 132
212 186 155
212 189 156
218 195 164
222 199 168
224 201 169
229 206 174
233 210 178
235 212 180
233 210 178
233 210 178
236 211 181
239 214 184
237 212 183
239 214 184
236 211 179
236 210 183
225 200 170
220 200 166
219 201 173
218 202 176
219 203 177
218 202 177
220 204 179
220 204 179
219 204 178
220 206 180
221 207 181
223 209 183
222 208 182
222 208 182
222 208 182
222 208 182
223 209 183
224 210 184
223 209 183
225 211 185
225 210 187
226 211 190
225 210 189
225 210 189
225 210 189
226 211 190
226 211 189
109 81 45
146 112 68
150 118 67
153 122 72
169 137 91
187 155 110
194 165 124
204 178 141
212 186 154
215 192 158
221 198 166
225 202 171
229 206 174
233 210 178
234 211 179
236 213 181
234 211 179
236 213 181
237 212 182
237 212 182
236 211 180
234 209 180
234 208 180
223 199 168
216 195 161
218 199 167
219 201 175
219 203 177
218 202 176
220 204 178
220 204 179
220 204 179
220 205 180
220 206 180
222 208 182
222 208 182
223 209 182
222 208 182
224 210 184
224 210 184
224 210 184
224 210 184
225 211 185
226 212 186
226 211 188
226 211 190
226 211 190
227 212 191
227 212 191
227 213 192
228 213 193
103 76 39
147 116 72
157 124 74
165 133 85
188 156 112
201 169 129
205 176 140
211 185 150
216 192 157
221 198 164
223 200 169
226 203 172
231 208 176
235 212 180
236 213 181
236 213 182
236 213 181
238 214 183
237 213 183
236 212 182
230 206 174
232 205 175
227 201 172
216 194 163
219 200 166
218 202 172
219 202 177
220 205 179
220 205 179
220 205 179
221 205 181
222 206 182
222 207 182
223 208 184
224 210 185
224 210 186
224 210 186
223 209 185
224 209 185
225 210 186
225 211 186
226 211 187
226 211 187
227 213 189
227 213 191
228 214 193
228 214 192
228 214 193
228 214 193
228 214 194
228 214 195
129 103 57
131 104 63
163 129 82
183 150 105
201 170 130
207 177 143
212 185 151
218 193 159
222 198 164
224 201 168
227 203 171
232 209 179
235 212 181
235 212 181
237 214 183
238 215 184
238 215 184
240 216 186
238 215 185
232 209 177
228 204 172
226 200 167
218 195 158
214 196 165
193 180 151
179 168 139
188 178 149
199 187 160
208 196 169
217 205 179
220 207 181
221 208 182
222 208 184
222 207 187
225 209 189
225 210 189
225 210 189
224 209 188
223 208 187
225 210 189
226 211 190
226 211 190
226 211 190
227 212 192
226 212 191
226 214 192
225 213 191
225 213 193
225 212 193
226 213 194
227 214 195
163 127 77
114 86 48
165 135 94
196 165 122
206 177 139
216 188 156
221 195 163
223 200 168
226 204 172
228 205 173
232 208 179
235 211 183
237 214 183
236 213 182
237 214 183
237 214 183
238 215 184
238 215 184
237 214 182
231 208 175
220 200 165
194 178 144
169 155 120
166 155 125
149 139 110
147 136 107
153 141 113
138 127 101
125 115 91
148 138 114
180 171 142
210 200 170
216 204 180
224 209 188
225 210 189
225 210 189
225 210 189
225 210 189
225 210 189
225 210 189
226 211 190
225 210 189
228 213 192
227 212 191
226 213 191
226 214 192
225 213 191
226 213 194
227 214 195
229 216 197
230 217 198
