P1
# Created by GIMP version 2.10.24 PNM plug-in
50 16
1111111111111111111111111111111111111110000000000000000011111111000000
0000000000000000000000000000000000001111111100000000000000000000000000
0000000000000000111111110000000000000000000000000000000000000000001111
1111000000000000000000000000000000000000000000111111110000000000000000
0000000000000000000000000011111111000000000000000000000000000000000000
0000001111111100000000000000000000000000000000000000000011111111000000
0000000000000000000000000000000000001111111100000000000000000000000000
0000000000000000111111110000000000000000000000000000000000000000001111
1111000000000000000000000000000000000000000000111111110000000000000000
0000000001111111111110000011111111000000000000000000000000011111111111
1111111111111111111111111111111111111111111111111111111111111111111111
111111111111111111111111111111