P2
7 2
15
0 0 0 0 0 0 0 
0 0 7 0 0 0 0 
