P3
#comment here ++
#another comment
#more coometns
#one moreS
3 2 #new
200
1 1 1
2 2 2
3 3 3 #anoter
4 4 4
5 5 5 #smth
6 6 6
