P3
15 15
255
255 0 0
255 0 0
255 0 0
0 255 0
0 255 0
0 255 0
0 255 0
0 255 0
0 0 255
0 0 255
0 0 255
0 0 255
0 0 255
0 0 255
0 0 255
255 0 0
255 0 0
255 0 0
0 255 0
0 255 0
0 255 0
0 255 0
0 255 0
0 0 255
0 0 255
0 0 255
0 0 255
0 0 255
0 0 255
0 0 255
255 0 0
255 0 0
255 0 0
0 255 0
0 255 0
0 255 0
0 255 0
0 255 0
0 0 255
0 0 255
0 0 255
0 0 255
0 0 255
0 0 255
0 0 255
255 255 0
255 255 0
255 255 0
255 255 255
255 255 255
255 255 255
255 255 255
255 255 255
0 0 0
0 0 0
0 0 0
0 0 0
0 0 0
0 0 0
0 0 0
255 255 0
255 255 0
255 255 0
255 255 255
255 255 255
255 255 255
255 255 255
255 255 255
0 0 0
0 0 0
0 0 0
0 0 0
0 0 0
0 0 0
0 0 0
255 255 0
255 255 0
255 255 0
255 255 255
255 255 255
255 255 255
255 255 255
255 255 255
0 0 0
0 0 0
0 0 0
0 0 0
0 0 0
0 0 0
0 0 0
255 255 0
255 255 0
255 255 0
255 255 255
255 255 255
255 255 255
255 255 255
255 255 255
0 0 0
0 0 0
0 0 0
0 0 0
0 0 0
0 0 0
0 0 0
255 255 0
255 255 0
255 255 0
255 255 255
255 255 255
255 255 255
255 255 255
255 255 255
0 0 0
0 0 0
0 0 0
0 0 0
0 0 0
0 0 0
0 0 0
0 125 153
0 125 153
0 125 153
125 0 33
125 0 33
125 0 33
125 0 33
125 0 33
21 7 8
21 7 8
21 7 8
21 7 8
21 7 8
21 7 8
21 7 8
0 125 153
0 125 153
0 125 153
125 0 33
125 0 33
125 0 33
125 0 33
125 0 33
21 7 8
21 7 8
21 7 8
21 7 8
21 7 8
21 7 8
21 7 8
0 125 153
0 125 153
0 125 153
125 0 33
125 0 33
125 0 33
125 0 33
125 0 33
21 7 8
21 7 8
21 7 8
21 7 8
21 7 8
21 7 8
21 7 8
0 125 153
0 125 153
0 125 153
125 0 33
125 0 33
125 0 33
125 0 33
125 0 33
21 7 8
21 7 8
21 7 8
21 7 8
21 7 8
21 7 8
21 7 8
0 125 153
0 125 153
0 125 153
125 0 33
125 0 33
125 0 33
125 0 33
125 0 33
21 7 8
21 7 8
21 7 8
21 7 8
21 7 8
21 7 8
21 7 8
0 125 153
0 125 153
0 125 153
125 0 33
125 0 33
125 0 33
125 0 33
125 0 33
21 7 8
21 7 8
21 7 8
21 7 8
21 7 8
21 7 8
21 7 8
0 125 153
0 125 153
0 125 153
125 0 33
125 0 33
125 0 33
125 0 33
125 0 33
21 7 8
21 7 8
21 7 8
21 7 8
21 7 8
21 7 8
21 7 8
