P3
3 3
255
255   0   0
  0 255   0
  0   0 255
255 255   0
255 255 255
  0   0   0
  0 125 153
125 0   33
21  7   8