P1
4 5
0010
0010
1100
0000
0000
